# xmcd CD database file
#
# Track frame offsets:
#	150
#	16209
#	37758
#	62159
#	81542
#	100569
#	126638
#	154249
#	173155
#	195619
#	217922
#	229001
#	240041
#	251502
#
# Disc length: 3506 seconds
#
# Revision: 5
# Processed by: cddbd v1.5.1PL0 Copyright (c) Steve Scherf et al.
# Submitted via: CDex 1.51
#
DISCID=ac0db00e
DTITLE=Nightlosers - The Groove Distillery
DYEAR=1997
DGENRE=Blues
TTITLE0=Shame Shame Shame
TTITLE1=Baby Why You Want To Let Go
TTITLE2=Everyday I have the blues
TTITLE3=Pretty Thing
TTITLE4=All Your Love
TTITLE5=Little City Woman
TTITLE6=Stormy Monday Blues
TTITLE7=Five Long Years
TTITLE8=Hoochie Coochie Man
TTITLE9=Mystery Train
TTITLE10=Trouble In Mind
TTITLE11=Balkan Blue Rumba
TTITLE12=Blue Suede Shoes
TTITLE13=Goodnight Irene
EXTD=YEAR: 1997
EXTT0=
EXTT1=
EXTT2=
EXTT3=
EXTT4=
EXTT5=
EXTT6=
EXTT7=
EXTT8=
EXTT9=
EXTT10=
EXTT11=
EXTT12=
EXTT13=
PLAYORDER=
